<?xml version="1.0" encoding="utf-8"?>
<!-- Generator: Adobe Illustrator 21.1.0, SVG Export Plug-In . SVG Version: 6.00 Build 0)  -->
<svg version="1.1" xmlns="http://www.w3.org/2000/svg" xmlns:xlink="http://www.w3.org/1999/xlink" x="0px" y="0px"
	 viewBox="0 0 100 100" style="enable-background:new 0 0 100 100;" xml:space="preserve">
<style type="text/css">
	.st0{fill:#EAF1FA;}
	.st1{fill:#D4E690;}
	.st2{fill:#A2D240;}
	.st3{fill:#1B8B00;}
	.st4{fill:#002801;}
	.st5{fill:none;stroke:#EAF1FA;stroke-width:4.6;stroke-miterlimit:10;}
	.st6{display:none;fill:#A2D240;}
</style>
<g id="Layer_1">
</g>
<g id="Layer_2">
</g>
<g id="logo">
	<path class="st4" d="M53.6,72.4v21.1H5.7v-82c0-2.8,2.2-5,5-5h16.1c2.8,0,5,2.2,5,5v50.9c0,2.8,2.2,5,5,5h11.8
		C51.3,67.4,53.6,69.6,53.6,72.4z"/>
	<path class="st3" d="M92.7,93.5H66.6v-82c0-2.8,2.2-5,5-5h16.1c2.8,0,5,2.2,5,5V93.5z"/>
	<path class="st2" d="M64.2,93.5H56v-23c0-1.7,1.3-3,3-3h2.2c1.7,0,3,1.3,3,3V93.5z"/>
	<rect x="57.3" y="67.4" class="st6" width="7.3" height="26.1"/>
</g>
<g id="bg">
</g>
</svg>
